# xmcd
#
# Track frame offsets:
# 183
# 15860
# 30888
# 52605
# 68655
# 97908
# 119963
# 144565
# 155298
# 175960
# 192340
#
# Disc length: 2692 seconds
#
#
# Revision: 0
# Processed by: cddbd v1.5.1PL0 Copyright (c) Steve Scherf et al.
# Submitted via: FreeRIP 2.941 
#
DISCID=800a820b
DTITLE=Basement Appartment - Basement Appartment
DYEAR=1990
DGENRE=Folk Blues
TTITLE0=Difference
TTITLE1=Mean Old World
TTITLE2=Child
TTITLE3=What Can I Say
TTITLE4=Kingsnake
TTITLE5=If You Want to Stay
TTITLE6=Witches Cycle
TTITLE7=Are You Waitin'
TTITLE8=When I Woke Up
TTITLE9=Where's Our Love
TTITLE10=Where we're Going
EXTD=
EXTT0=
EXTT1=
EXTT2=
EXTT3=
EXTT4=
EXTT5=
EXTT6=
EXTT7=
EXTT8=
EXTT9=
EXTT10=
PLAYORDER=
